PathFileType	4	(X/Y/Z)	C:\Users\gl24\Desktop\Patient 3 Collaboration with Marleny\nms_results\Right\Marker Files\Patient3_NormalGait_1pt0_02_Right_01.trc.trc
DataRate	CameraRate	NumFrames	NumMarkers	Units	OrigDataRate	OrigDataStartFrame	OrigNumFrames
80.459770114943	80.459770114943	4	33	mm	80.459770114943	1	       141
Frame#	Time	L.Toe			L.Midfoot.Superior			Neck			R.Toe			R.Heel			L.Heel			R.Elbow			R.Shoulder			L.Shank.Inferior			L.Shoulder			L.Shank.Superior			R.Shank.Lateral			L.Patella			L.Thigh.Inferior			R.Wrist			R.Midfoot.Superior			L.Shank.Lateral			Sternum			L.Elbow			R.Midfoot.Lateral			L.Thigh.Superior			L.Wrist			R.Thigh.Superior			L.Thigh.Lateral			R.Shank.Inferior			L.Midfoot.Lateral			R.Shank.Superior			R.Thigh.Lateral			L.Asis			R.Thigh.Inferior			R.Patella			Sacral			R.Asis			
		X1	Y1	Z1	X2	Y2	Z2	X3	Y3	Z3	X4	Y4	Z4	X5	Y5	Z5	X6	Y6	Z6	X7	Y7	Z7	X8	Y8	Z8	X9	Y9	Z9	X10	Y10	Z10	X11	Y11	Z11	X12	Y12	Z12	X13	Y13	Z13	X14	Y14	Z14	X15	Y15	Z15	X16	Y16	Z16	X17	Y17	Z17	X18	Y18	Z18	X19	Y19	Z19	X20	Y20	Z20	X21	Y21	Z21	X22	Y22	Z22	X23	Y23	Z23	X24	Y24	Z24	X25	Y25	Z25	X26	Y26	Z26	X27	Y27	Z27	X28	Y28	Z28	X29	Y29	Z29	X30	Y30	Z30	X31	Y31	Z31	X32	Y32	Z32	X33	Y33	Z33	

1	0.390000000000	697.205650157950	41.335497422772	403.324551209613	578.543714049678	89.135254792053	418.386707641591	472.120743759316	1463.656848257886	460.752042500276	475.952204705196	40.522576900431	576.743146205058	280.754888943220	255.039695028550	516.048400220144	407.114071031316	37.682173163664	454.325108075471	468.190823291327	1077.232645291735	731.582786071208	511.187353212296	1422.197261399346	627.505286926011	563.317474924723	227.836680798731	403.721625886714	546.325596376542	1430.097367407601	317.566959252239	602.886994830324	377.384149277045	378.787905161102	536.702217790105	426.050960368575	640.253094125759	655.891451153809	486.333072049673	393.294100294452	664.325952835307	609.655095490600	368.910635072747	556.914493504788	839.710414918820	766.809397640339	430.308866485524	161.846836710136	558.348585085005	508.621266175343	327.742355529164	334.932724573633	622.444135810034	1367.900852292307	478.979295864492	522.162836828881	1095.469998405087	193.152610582133	322.656766937282	190.522834891414	587.508015349778	671.776070307340	738.019656248087	351.592645279062	685.200254076469	892.908886459495	189.044698775559	685.857532631394	737.378467793619	617.615619896153	579.921945334311	655.197860280183	310.973718719771	495.753732910199	288.990054084651	575.511801316214	483.184281975137	29.048448048161	387.341771026831	633.200999223740	397.149942080723	603.730854255419	609.464265599589	661.311478796389	655.842615250050	614.614737071781	963.115508691078	338.442777091477	718.617361417650	630.070013244166	608.520290456644	737.142460364800	495.014551229077	601.894590806583	429.060228638017	987.768012162380	455.578832479564	590.484011060419	971.380808322985	597.435152619615	
2	0.402428571429	684.260073881812	40.931285782120	403.250346148114	565.918647371999	89.267160913021	418.199965287130	471.721850306017	1464.477611498482	460.008209257273	510.870173415174	39.604661864637	574.234165459112	301.361381272057	238.488771740720	517.198831980811	394.271904729633	38.938675743056	454.183752872595	460.978926242695	1078.338984533325	729.890589864262	509.810585163249	1422.614034889268	626.924440346334	551.714149040929	228.074888891358	403.335846683549	546.755617650258	1431.183566180181	317.220068174989	592.378419773395	377.361598741944	378.210160290677	548.580003525400	423.385131488786	641.424275268907	646.360522771451	485.596653529413	392.473636481405	657.325807662475	608.676338100077	368.779460551301	544.797832932644	839.454291936294	765.863478881963	456.845485633168	156.564130054786	557.363771918052	497.563784937480	328.606004333290	334.656153379417	621.720504829279	1368.312474602861	478.842917306855	526.692574362264	1097.170631579741	190.620122609003	348.321884179156	177.052042421050	587.651277326740	667.054359739649	737.205694906827	351.431686481043	696.156164349168	900.193811099951	188.624016968218	687.300987290148	742.181096335502	616.615913795995	573.674086108747	655.415372627848	310.885103585879	514.147556883700	285.390260377988	574.979174962662	470.300209641283	29.706361295639	387.328044597282	645.612785498800	400.037460172397	603.430125792543	613.920704284550	664.850407059915	657.473821391616	612.528551982130	963.290902135148	337.953117077586	722.570007445715	635.969670403904	607.512439523962	744.435456192399	501.880583511852	601.871472526218	427.170301671931	988.657126916497	455.406851674217	588.808804719585	972.282403856805	596.997092188278	
3	0.414857142857	671.502326439055	40.530181893353	403.178798711137	553.484569248739	89.402596413705	418.007292759799	471.327259927298	1465.275676619363	459.290101259919	545.327391417238	38.565200596875	571.833944256202	321.910704008067	221.935562056683	518.378316042470	381.617800004388	40.214835114717	454.034996981930	453.973813329046	1079.447901294598	728.216664230368	508.457189599085	1423.035995906611	626.366637322478	540.281475426439	228.330093326705	402.940199293009	547.157257162801	1432.221741225456	316.893428008870	582.013479169290	377.360509621886	377.633364423513	560.208984438873	420.637328304148	642.586148354728	636.956179360303	484.885025963608	391.651250820464	650.441127070117	607.712795636982	368.598502442161	532.938184017168	839.237938216121	764.922287249988	483.111085820047	151.154293690221	556.470845384501	486.671938452996	329.472319528436	334.370702256783	621.000239959385	1368.707377992831	478.722788951340	531.124467632918	1098.828677888135	188.138473068744	373.817254543484	163.580563218554	587.845141172316	662.371618317025	736.400310132282	351.243816515046	706.857701468802	907.371778539206	188.238520188202	688.622351336362	746.853605565048	615.602218386709	567.496749626693	655.647504377415	310.795471287041	532.351340694517	281.687389534284	574.529612031564	457.608795036747	30.365147421986	387.307316257640	657.746961808254	402.852650791031	603.157860538356	618.231254280724	668.331175826026	659.063401548251	610.475166691098	963.459290004881	337.504911246741	726.308685689674	641.703674336273	606.481702390218	751.399646313167	508.577498533040	601.855907758810	425.298233361140	989.517909547201	455.242587750114	587.125059666995	973.156270393288	596.590838899500	
4	0.427285714286	658.931440147109	40.135631082154	403.110427838448	541.251126105476	89.546557024586	417.798276106622	470.943313944582	1466.024895692292	458.624312202311	579.380172826115	37.463537599480	569.740365238776	342.827619539112	205.256852841708	519.617510369769	369.155834331863	41.547755423772	453.872525295970	447.316298268738	1080.564925653198	726.577028535086	507.147678668359	1423.463371509827	625.858295426295	529.016777560674	228.626615304749	402.521063879808	547.509616923710	1433.160065567878	316.611318334917	571.776479585362	377.406362017721	377.051927409079	571.431899954252	417.658780867154	643.714271695517	627.656066387591	484.204335119217	390.831640919568	643.674171461487	606.763970340030	368.342763502261	521.505988071055	839.097098197005	763.989652963182	509.284757382483	145.555070279212	555.801835539098	475.942356288860	330.363996103584	334.068104586150	620.285818645021	1369.060757808682	478.640457512344	535.403686674582	1100.407281938825	185.742934819105	399.459062688553	150.078282270632	588.168496844919	657.693867750064	735.590111049330	351.024529673836	717.145021271671	914.402691008098	187.927318193370	689.666109286393	751.222398855486	614.573928761257	561.373481986398	655.905530919457	310.706893604160	550.434785528284	277.799010176424	574.254729129150	445.115535602860	31.038568646014	387.272249659302	669.362950419926	405.546344927824	602.941174628311	622.176574986489	671.645840574576	660.555362330194	608.464506018324	963.603306646540	337.142149065851	729.571151746279	647.052061012481	605.410970993906	757.652264133729	514.907911314752	601.819013823811	423.450090559467	990.323808050121	455.106558474395	585.419662107302	973.966602734540	596.254182720166	
